# xmcd
#
# Track frame offsets: 
#        150
#        15477
#        30790
#
# Disc length: 614 seconds
#
# Revision: 0
# Processed by: cddbd v1.4PL0 Copyright (c) Steve Scherf et al.
# Submitted via: ExactAudioCopy v0.95a4
#
DISCID=0f026403
DTITLE=Mike Manzel - It's Christmas
DYEAR=1999
DGENRE=R&B
TTITLE0=It's Christmas (Version 1)
TTITLE1=It's Christmas (Version 2)
TTITLE2=It's Christmas (Instrumental)
EXTD=
EXTT0=
EXTT1=
EXTT2=
PLAYORDER=
